<?xml version="1.0" encoding="UTF-8"?>
<svg width="270px" height="281px" viewBox="0 0 270 281" version="1.1" xmlns="http://www.w3.org/2000/svg" xmlns:xlink="http://www.w3.org/1999/xlink">
    <!-- Generator: Sketch 51 (57462) - http://www.bohemiancoding.com/sketch -->
    <title>Log icon</title>
    <desc>Created with Sketch.</desc>
    <defs></defs>
    <g id="Page-1" stroke="none" stroke-width="1" fill="none" fill-rule="evenodd">
        <g id="Log-icon">
            <polygon id="Shape" stroke="#428BCA" stroke-width="6" fill-opacity="0" fill="#F9BA48" fill-rule="nonzero" points="239.733031 27.1231453 267 27.1231453 267 30.534735 256.774618 40.7695041 267 51.0042732 267 54.4158629 239.733031 54.4158629"></polygon>
            <text id="LOG" fill="#428BCA" font-family="AvenirNext-Regular, Avenir Next" font-size="74" font-weight="normal">
                <tspan x="61.9009072" y="102.47973">LOG</tspan>
            </text>
            <path d="M239.733031,244.112105 L244.249567,244.112105 L244.249567,0 L59.0753814,0 C46.623134,0 36.492701,10.1397331 36.492701,22.6034122 L36.492701,149.179672 L27.4596289,149.179672 C12.5148454,149.179672 0.361360825,161.344314 0.361360825,176.302818 C0.361360825,191.261321 12.5148454,203.425963 27.4596289,203.425963 L36.492701,203.425963 L36.492701,257.673203 C36.492701,270.136882 46.623134,280.276615 59.0753814,280.276615 L244.249567,280.276615 L244.249567,271.23525 L239.733031,271.23525 C232.26301,271.23525 226.183423,265.150081 226.183423,257.673203 C226.183423,250.196324 232.26301,244.112105 239.733031,244.112105 Z M45.5257732,194.385547 L36.492701,194.385547 L36.492701,158.221037 L45.5257732,158.221037 L45.5257732,194.385547 Z M54.5588454,180.8235 L185.535546,180.8235 L185.535546,194.385547 L54.5588454,194.385547 L54.5588454,180.8235 Z M194.568619,162.483503 L213.894309,176.302818 L194.568619,190.122132 L194.568619,162.483503 Z M185.535546,171.782135 L54.5588454,171.782135 L54.5588454,158.220088 L185.535546,158.220088 L185.535546,171.782135 Z M9.39443299,176.302818 C9.39443299,166.330166 17.4970722,158.220088 27.4605773,158.220088 L27.4605773,194.384598 C17.4970722,194.385547 9.39443299,186.27547 9.39443299,176.302818 Z M221.676371,271.23525 L59.0753814,271.23525 C51.6053608,271.23525 45.5257732,265.150081 45.5257732,257.673203 C45.5257732,250.196324 51.6053608,244.111155 59.0753814,244.111155 L221.676371,244.111155 C218.835753,247.890416 217.151299,252.587672 217.151299,257.673203 C217.150351,262.759682 218.835753,267.45599 221.676371,271.23525 Z M59.0753814,235.07074 C53.9717526,235.07074 49.3110515,236.838382 45.5257732,239.709139 L45.5257732,203.426912 L191.497526,203.426912 L229.43567,176.303767 L191.497526,149.180622 L45.5257732,149.180622 L45.5257732,22.6034122 C45.5257732,15.1265338 51.6053608,9.04136486 59.0753814,9.04136486 L235.216495,9.04136486 L235.216495,235.07074 L59.0753814,235.07074 Z" id="Shape" fill="#428BCA" fill-rule="nonzero"></path>
        </g>
    </g>
</svg>